<mxfile host="app.diagrams.net" modified="2021-07-11T13:34:30.017Z" agent="5.0 (Macintosh; Intel Mac OS X 10_15_7) AppleWebKit/537.36 (KHTML, like Gecko) Chrome/91.0.4472.114 Safari/537.36" etag="UR-nrL9AeWRV5yzAH5D_" version="14.8.4" type="github">
  <diagram id="6STvKimsptoojTG2eYll" name="Page-1">
    <mxGraphModel dx="1826" dy="1193" grid="0" gridSize="10" guides="1" tooltips="1" connect="1" arrows="1" fold="1" page="0" pageScale="1" pageWidth="850" pageHeight="1100" math="0" shadow="0">
      <root>
        <mxCell id="0" />
        <mxCell id="1" parent="0" />
        <mxCell id="wYJI5mITfUX201HlZ-qb-3" value="" style="rounded=1;whiteSpace=wrap;html=1;" vertex="1" parent="1">
          <mxGeometry x="-257" y="-39" width="116" height="142" as="geometry" />
        </mxCell>
        <mxCell id="wYJI5mITfUX201HlZ-qb-4" value="" style="aspect=fixed;html=1;points=[];align=center;image;fontSize=12;image=img/lib/mscae/Exchange_On_premises_Access.svg;" vertex="1" parent="1">
          <mxGeometry x="-230" y="-30" width="28.999999999999996" height="50" as="geometry" />
        </mxCell>
        <mxCell id="wYJI5mITfUX201HlZ-qb-8" value="Express Route" style="text;html=1;strokeColor=none;fillColor=none;align=center;verticalAlign=middle;whiteSpace=wrap;rounded=0;" vertex="1" parent="1">
          <mxGeometry x="426" y="297" width="100" height="17" as="geometry" />
        </mxCell>
        <mxCell id="wYJI5mITfUX201HlZ-qb-11" value="" style="verticalLabelPosition=bottom;html=1;verticalAlign=top;align=center;strokeColor=none;fillColor=#00BEF2;shape=mxgraph.azure.express_route;pointerEvents=1;" vertex="1" parent="1">
          <mxGeometry x="-156" y="210" width="50" height="30" as="geometry" />
        </mxCell>
        <mxCell id="wYJI5mITfUX201HlZ-qb-15" value="on-premises" style="text;html=1;strokeColor=none;fillColor=none;align=center;verticalAlign=middle;whiteSpace=wrap;rounded=0;" vertex="1" parent="1">
          <mxGeometry x="-261.5" y="-68" width="91" height="20" as="geometry" />
        </mxCell>
        <mxCell id="wYJI5mITfUX201HlZ-qb-18" value="" style="rounded=1;whiteSpace=wrap;html=1;" vertex="1" parent="1">
          <mxGeometry x="355" y="-21" width="746" height="343" as="geometry" />
        </mxCell>
        <mxCell id="wYJI5mITfUX201HlZ-qb-19" value="" style="rounded=1;whiteSpace=wrap;html=1;" vertex="1" parent="1">
          <mxGeometry x="409" y="16" width="662" height="274.5" as="geometry" />
        </mxCell>
        <mxCell id="wYJI5mITfUX201HlZ-qb-20" value="" style="rounded=1;whiteSpace=wrap;html=1;" vertex="1" parent="1">
          <mxGeometry x="580" y="53.13" width="470" height="223.25" as="geometry" />
        </mxCell>
        <mxCell id="wYJI5mITfUX201HlZ-qb-22" value="" style="aspect=fixed;html=1;points=[];align=center;image;fontSize=12;image=img/lib/azure2/networking/DNS_Zones.svg;" vertex="1" parent="1">
          <mxGeometry x="391" y="41" width="41.5" height="41.5" as="geometry" />
        </mxCell>
        <mxCell id="wYJI5mITfUX201HlZ-qb-23" value="" style="verticalLabelPosition=bottom;html=1;verticalAlign=top;align=center;strokeColor=none;fillColor=#00BEF2;shape=mxgraph.azure.cloud;" vertex="1" parent="1">
          <mxGeometry x="394" y="-43.5" width="50" height="32.5" as="geometry" />
        </mxCell>
        <mxCell id="wYJI5mITfUX201HlZ-qb-24" value="Partner Edge" style="rounded=1;whiteSpace=wrap;html=1;" vertex="1" parent="1">
          <mxGeometry x="-239" y="129.5" width="57" height="61.5" as="geometry" />
        </mxCell>
        <mxCell id="wYJI5mITfUX201HlZ-qb-25" value="" style="rounded=1;whiteSpace=wrap;html=1;" vertex="1" parent="1">
          <mxGeometry x="-271" y="242" width="148" height="66" as="geometry" />
        </mxCell>
        <mxCell id="wYJI5mITfUX201HlZ-qb-26" value="" style="aspect=fixed;perimeter=ellipsePerimeter;html=1;align=center;shadow=0;dashed=0;spacingTop=3;image;image=img/lib/active_directory/tunnel.svg;" vertex="1" parent="1">
          <mxGeometry x="-249" y="250" width="109.5" height="21.9" as="geometry" />
        </mxCell>
        <mxCell id="wYJI5mITfUX201HlZ-qb-27" value="" style="aspect=fixed;perimeter=ellipsePerimeter;html=1;align=center;shadow=0;dashed=0;spacingTop=3;image;image=img/lib/active_directory/tunnel.svg;" vertex="1" parent="1">
          <mxGeometry x="-244.5" y="279" width="105" height="21" as="geometry" />
        </mxCell>
        <mxCell id="wYJI5mITfUX201HlZ-qb-29" value="Microsoft edge" style="rounded=1;whiteSpace=wrap;html=1;" vertex="1" parent="1">
          <mxGeometry x="-230" y="349" width="66" height="59" as="geometry" />
        </mxCell>
        <mxCell id="wYJI5mITfUX201HlZ-qb-31" value="Private peering" style="rounded=1;whiteSpace=wrap;html=1;" vertex="1" parent="1">
          <mxGeometry x="-108" y="344" width="62" height="75" as="geometry" />
        </mxCell>
        <mxCell id="wYJI5mITfUX201HlZ-qb-32" value="Microsoft peering" style="rounded=1;whiteSpace=wrap;html=1;" vertex="1" parent="1">
          <mxGeometry x="-271" y="445" width="78" height="70" as="geometry" />
        </mxCell>
        <mxCell id="wYJI5mITfUX201HlZ-qb-33" value="" style="aspect=fixed;html=1;points=[];align=center;image;fontSize=12;image=img/lib/azure2/networking/Public_IP_Addresses.svg;" vertex="1" parent="1">
          <mxGeometry x="503" y="205" width="30" height="24" as="geometry" />
        </mxCell>
        <mxCell id="wYJI5mITfUX201HlZ-qb-34" value="Gateway Subnet" style="outlineConnect=0;gradientColor=none;html=1;whiteSpace=wrap;fontSize=12;fontStyle=0;shape=mxgraph.aws4.group;grIcon=mxgraph.aws4.group_subnet;strokeColor=#879196;fillColor=none;verticalAlign=top;align=left;spacingLeft=30;fontColor=#879196;dashed=0;" vertex="1" parent="1">
          <mxGeometry x="626" y="69" width="142" height="73" as="geometry" />
        </mxCell>
        <mxCell id="wYJI5mITfUX201HlZ-qb-35" value="vng" style="aspect=fixed;html=1;points=[];align=center;image;fontSize=12;image=img/lib/mscae/VPN_Gateway.svg;" vertex="1" parent="1">
          <mxGeometry x="566" y="148.5" width="29.25" height="32.5" as="geometry" />
        </mxCell>
        <mxCell id="wYJI5mITfUX201HlZ-qb-36" value="Express Route Subnet" style="outlineConnect=0;gradientColor=none;html=1;whiteSpace=wrap;fontSize=12;fontStyle=0;shape=mxgraph.aws4.group;grIcon=mxgraph.aws4.group_subnet;strokeColor=#879196;fillColor=none;verticalAlign=top;align=left;spacingLeft=30;fontColor=#879196;dashed=0;" vertex="1" parent="1">
          <mxGeometry x="628" y="162.5" width="143" height="102" as="geometry" />
        </mxCell>
        <mxCell id="wYJI5mITfUX201HlZ-qb-37" value="Express route circuit" style="aspect=fixed;html=1;points=[];align=center;image;fontSize=12;image=img/lib/mscae/Express_Route.svg;" vertex="1" parent="1">
          <mxGeometry x="400" y="264.5" width="50" height="30" as="geometry" />
        </mxCell>
        <mxCell id="wYJI5mITfUX201HlZ-qb-38" value="" style="rounded=1;whiteSpace=wrap;html=1;" vertex="1" parent="1">
          <mxGeometry x="-281.1" y="553" width="213" height="106" as="geometry" />
        </mxCell>
        <mxCell id="wYJI5mITfUX201HlZ-qb-39" value="Microsoft" style="text;html=1;strokeColor=none;fillColor=none;align=center;verticalAlign=middle;whiteSpace=wrap;rounded=0;" vertex="1" parent="1">
          <mxGeometry x="-218.5" y="528" width="75" height="20" as="geometry" />
        </mxCell>
        <mxCell id="wYJI5mITfUX201HlZ-qb-40" value="" style="shape=image;html=1;verticalAlign=top;verticalLabelPosition=bottom;labelBackgroundColor=#ffffff;imageAspect=0;aspect=fixed;image=https://cdn4.iconfinder.com/data/icons/logos-and-brands/512/243_Outlook_logo-128.png" vertex="1" parent="1">
          <mxGeometry x="-261.5" y="560" width="43" height="43" as="geometry" />
        </mxCell>
        <mxCell id="wYJI5mITfUX201HlZ-qb-41" value="" style="shape=image;html=1;verticalAlign=top;verticalLabelPosition=bottom;labelBackgroundColor=#ffffff;imageAspect=0;aspect=fixed;image=https://cdn4.iconfinder.com/data/icons/address-book-providers-in-colors/512/office365-128.png" vertex="1" parent="1">
          <mxGeometry x="-202.5" y="568" width="32" height="32" as="geometry" />
        </mxCell>
        <mxCell id="wYJI5mITfUX201HlZ-qb-42" value="" style="shape=image;html=1;verticalAlign=top;verticalLabelPosition=bottom;labelBackgroundColor=#ffffff;imageAspect=0;aspect=fixed;image=https://cdn0.iconfinder.com/data/icons/logos-microsoft-office-365/128/Microsoft_Office-08-128.png" vertex="1" parent="1">
          <mxGeometry x="-142" y="563.25" width="41.5" height="41.5" as="geometry" />
        </mxCell>
        <mxCell id="wYJI5mITfUX201HlZ-qb-43" value="" style="verticalLabelPosition=bottom;html=1;verticalAlign=top;align=center;strokeColor=none;fillColor=#00BEF2;shape=mxgraph.azure.sql_database_sql_azure;" vertex="1" parent="1">
          <mxGeometry x="-261.5" y="612" width="35" height="36" as="geometry" />
        </mxCell>
        <mxCell id="wYJI5mITfUX201HlZ-qb-44" value="" style="aspect=fixed;html=1;points=[];align=center;image;fontSize=12;image=img/lib/mscae/Table_Storage.svg;" vertex="1" parent="1">
          <mxGeometry x="-204.00000000000003" y="615.5" width="30.21" height="29" as="geometry" />
        </mxCell>
        <mxCell id="wYJI5mITfUX201HlZ-qb-45" value="" style="verticalLabelPosition=bottom;aspect=fixed;html=1;verticalAlign=top;strokeColor=none;align=center;outlineConnect=0;shape=mxgraph.citrix.datacenter;" vertex="1" parent="1">
          <mxGeometry x="-241.34" y="38" width="56.67" height="60" as="geometry" />
        </mxCell>
        <mxCell id="wYJI5mITfUX201HlZ-qb-47" value="" style="endArrow=classic;html=1;" edge="1" parent="1">
          <mxGeometry width="50" height="50" relative="1" as="geometry">
            <mxPoint x="-210" y="105" as="sourcePoint" />
            <mxPoint x="-210" y="133" as="targetPoint" />
          </mxGeometry>
        </mxCell>
        <mxCell id="wYJI5mITfUX201HlZ-qb-49" value="" style="endArrow=classic;html=1;entryX=0.5;entryY=0;entryDx=0;entryDy=0;exitX=0.5;exitY=1;exitDx=0;exitDy=0;" edge="1" parent="1" source="wYJI5mITfUX201HlZ-qb-25" target="wYJI5mITfUX201HlZ-qb-29">
          <mxGeometry width="50" height="50" relative="1" as="geometry">
            <mxPoint x="28" y="87" as="sourcePoint" />
            <mxPoint x="449" y="325" as="targetPoint" />
          </mxGeometry>
        </mxCell>
        <mxCell id="wYJI5mITfUX201HlZ-qb-50" value="" style="endArrow=classic;html=1;" edge="1" parent="1">
          <mxGeometry width="50" height="50" relative="1" as="geometry">
            <mxPoint x="-156" y="379" as="sourcePoint" />
            <mxPoint x="-113" y="379" as="targetPoint" />
          </mxGeometry>
        </mxCell>
        <mxCell id="wYJI5mITfUX201HlZ-qb-52" value="" style="endArrow=classic;html=1;" edge="1" parent="1">
          <mxGeometry width="50" height="50" relative="1" as="geometry">
            <mxPoint x="-237" y="523" as="sourcePoint" />
            <mxPoint x="-237" y="553" as="targetPoint" />
          </mxGeometry>
        </mxCell>
        <mxCell id="wYJI5mITfUX201HlZ-qb-53" value="Azure cloud" style="text;html=1;strokeColor=none;fillColor=none;align=center;verticalAlign=middle;whiteSpace=wrap;rounded=0;" vertex="1" parent="1">
          <mxGeometry x="378.5" y="-63.5" width="84" height="20" as="geometry" />
        </mxCell>
        <mxCell id="wYJI5mITfUX201HlZ-qb-54" value="hub-subcription" style="text;html=1;strokeColor=none;fillColor=none;align=center;verticalAlign=middle;whiteSpace=wrap;rounded=0;" vertex="1" parent="1">
          <mxGeometry x="472" width="112" height="20" as="geometry" />
        </mxCell>
        <mxCell id="wYJI5mITfUX201HlZ-qb-55" value="" style="aspect=fixed;html=1;points=[];align=center;image;fontSize=12;image=img/lib/mscae/ResourceGroup.svg;" vertex="1" parent="1">
          <mxGeometry x="570.75" y="59" width="36.25" height="29" as="geometry" />
        </mxCell>
        <mxCell id="wYJI5mITfUX201HlZ-qb-56" value="Hub-resourcegroup" style="text;html=1;strokeColor=none;fillColor=none;align=center;verticalAlign=middle;whiteSpace=wrap;rounded=0;" vertex="1" parent="1">
          <mxGeometry x="607" y="34.379999999999995" width="110" height="20" as="geometry" />
        </mxCell>
        <mxCell id="wYJI5mITfUX201HlZ-qb-57" value="" style="aspect=fixed;pointerEvents=1;shadow=0;dashed=0;html=1;strokeColor=none;labelPosition=center;verticalLabelPosition=bottom;verticalAlign=top;align=center;fillColor=#00188D;shape=mxgraph.mscae.enterprise.gateway" vertex="1" parent="1">
          <mxGeometry x="675" y="200" width="31" height="31" as="geometry" />
        </mxCell>
        <mxCell id="wYJI5mITfUX201HlZ-qb-58" value="Express Route Gateway" style="text;html=1;strokeColor=none;fillColor=none;align=center;verticalAlign=middle;whiteSpace=wrap;rounded=0;" vertex="1" parent="1">
          <mxGeometry x="636.5" y="238" width="121" height="17" as="geometry" />
        </mxCell>
        <mxCell id="wYJI5mITfUX201HlZ-qb-60" value="" style="endArrow=classic;html=1;entryX=0.846;entryY=-0.043;entryDx=0;entryDy=0;entryPerimeter=0;" edge="1" parent="1" target="wYJI5mITfUX201HlZ-qb-32">
          <mxGeometry width="50" height="50" relative="1" as="geometry">
            <mxPoint x="-205" y="414" as="sourcePoint" />
            <mxPoint x="449" y="290" as="targetPoint" />
          </mxGeometry>
        </mxCell>
        <mxCell id="wYJI5mITfUX201HlZ-qb-61" value="" style="endArrow=classic;html=1;exitX=0.5;exitY=1;exitDx=0;exitDy=0;" edge="1" parent="1" source="wYJI5mITfUX201HlZ-qb-24">
          <mxGeometry width="50" height="50" relative="1" as="geometry">
            <mxPoint x="399" y="340" as="sourcePoint" />
            <mxPoint x="-210" y="240" as="targetPoint" />
          </mxGeometry>
        </mxCell>
        <mxCell id="wYJI5mITfUX201HlZ-qb-62" value="" style="outlineConnect=0;dashed=0;verticalLabelPosition=bottom;verticalAlign=top;align=center;html=1;shape=mxgraph.aws3.router;fillColor=#F58534;gradientColor=none;" vertex="1" parent="1">
          <mxGeometry x="-159" y="23" width="36" height="36" as="geometry" />
        </mxCell>
        <mxCell id="wYJI5mITfUX201HlZ-qb-63" value="VPN device with Public IP" style="text;html=1;strokeColor=none;fillColor=none;align=center;verticalAlign=middle;whiteSpace=wrap;rounded=0;" vertex="1" parent="1">
          <mxGeometry x="-182" y="-3" width="107" height="19" as="geometry" />
        </mxCell>
        <mxCell id="wYJI5mITfUX201HlZ-qb-64" value="" style="aspect=fixed;html=1;points=[];align=center;image;fontSize=12;image=img/lib/azure2/other/Local_Network_Gateways.svg;" vertex="1" parent="1">
          <mxGeometry x="-26" y="26.75" width="35.25" height="35.25" as="geometry" />
        </mxCell>
        <mxCell id="wYJI5mITfUX201HlZ-qb-65" value="Local network Gateway" style="text;html=1;strokeColor=none;fillColor=none;align=center;verticalAlign=middle;whiteSpace=wrap;rounded=0;" vertex="1" parent="1">
          <mxGeometry x="-54.37" y="-5" width="92" height="19" as="geometry" />
        </mxCell>
        <mxCell id="wYJI5mITfUX201HlZ-qb-66" value="Public IP" style="text;html=1;strokeColor=none;fillColor=none;align=center;verticalAlign=middle;whiteSpace=wrap;rounded=0;" vertex="1" parent="1">
          <mxGeometry x="489" y="233.49999999999997" width="58" height="17" as="geometry" />
        </mxCell>
        <mxCell id="wYJI5mITfUX201HlZ-qb-70" value="Hub-vnet" style="verticalLabelPosition=bottom;html=1;verticalAlign=top;align=center;strokeColor=none;fillColor=#00BEF2;shape=mxgraph.azure.virtual_network;pointerEvents=1;" vertex="1" parent="1">
          <mxGeometry x="566" y="250" width="41" height="20" as="geometry" />
        </mxCell>
        <mxCell id="wYJI5mITfUX201HlZ-qb-72" value="s2svngconnection" style="aspect=fixed;html=1;points=[];align=center;image;fontSize=12;image=img/lib/mscae/VPN_Gateway.svg;" vertex="1" parent="1">
          <mxGeometry x="439" y="148.5" width="29.25" height="32.5" as="geometry" />
        </mxCell>
        <mxCell id="wYJI5mITfUX201HlZ-qb-75" value="" style="endArrow=classic;html=1;" edge="1" parent="1">
          <mxGeometry width="50" height="50" relative="1" as="geometry">
            <mxPoint x="-118" y="43" as="sourcePoint" />
            <mxPoint x="-47" y="43" as="targetPoint" />
          </mxGeometry>
        </mxCell>
        <mxCell id="wYJI5mITfUX201HlZ-qb-76" value="" style="endArrow=classic;html=1;" edge="1" parent="1">
          <mxGeometry width="50" height="50" relative="1" as="geometry">
            <mxPoint x="21" y="44" as="sourcePoint" />
            <mxPoint x="421" y="167" as="targetPoint" />
          </mxGeometry>
        </mxCell>
        <mxCell id="wYJI5mITfUX201HlZ-qb-83" value="" style="endArrow=classic;html=1;" edge="1" parent="1">
          <mxGeometry width="50" height="50" relative="1" as="geometry">
            <mxPoint x="-33" y="377" as="sourcePoint" />
            <mxPoint x="404" y="300" as="targetPoint" />
          </mxGeometry>
        </mxCell>
        <mxCell id="wYJI5mITfUX201HlZ-qb-86" value="Express Route" style="text;html=1;strokeColor=none;fillColor=none;align=center;verticalAlign=middle;whiteSpace=wrap;rounded=0;" vertex="1" parent="1">
          <mxGeometry x="-161" y="200" width="86" height="12" as="geometry" />
        </mxCell>
        <mxCell id="wYJI5mITfUX201HlZ-qb-101" value="" style="verticalLabelPosition=bottom;html=1;verticalAlign=top;align=center;strokeColor=none;fillColor=#00BEF2;shape=mxgraph.azure.azure_subscription;" vertex="1" parent="1">
          <mxGeometry x="444" y="10" width="37" height="28" as="geometry" />
        </mxCell>
        <mxCell id="wYJI5mITfUX201HlZ-qb-104" value="" style="rounded=1;whiteSpace=wrap;html=1;" vertex="1" parent="1">
          <mxGeometry x="162.25" y="423.5" width="340.75" height="262" as="geometry" />
        </mxCell>
        <mxCell id="wYJI5mITfUX201HlZ-qb-106" value="" style="rounded=1;whiteSpace=wrap;html=1;" vertex="1" parent="1">
          <mxGeometry x="749" y="430.5" width="394" height="255" as="geometry" />
        </mxCell>
        <mxCell id="wYJI5mITfUX201HlZ-qb-107" value="" style="rounded=1;whiteSpace=wrap;html=1;" vertex="1" parent="1">
          <mxGeometry x="201.75" y="451.5" width="260.75" height="193" as="geometry" />
        </mxCell>
        <mxCell id="wYJI5mITfUX201HlZ-qb-108" value="dev-vnet" style="verticalLabelPosition=bottom;html=1;verticalAlign=top;align=center;strokeColor=none;fillColor=#00BEF2;shape=mxgraph.azure.virtual_network;pointerEvents=1;" vertex="1" parent="1">
          <mxGeometry x="190" y="628" width="41" height="20" as="geometry" />
        </mxCell>
        <mxCell id="wYJI5mITfUX201HlZ-qb-109" value="" style="rounded=1;whiteSpace=wrap;html=1;" vertex="1" parent="1">
          <mxGeometry x="785" y="451.5" width="307" height="174.5" as="geometry" />
        </mxCell>
        <mxCell id="wYJI5mITfUX201HlZ-qb-110" value="prod-vnet" style="verticalLabelPosition=bottom;html=1;verticalAlign=top;align=center;strokeColor=none;fillColor=#00BEF2;shape=mxgraph.azure.virtual_network;pointerEvents=1;" vertex="1" parent="1">
          <mxGeometry x="778" y="612" width="41" height="20" as="geometry" />
        </mxCell>
        <mxCell id="wYJI5mITfUX201HlZ-qb-111" value="Subnet 1" style="outlineConnect=0;gradientColor=none;html=1;whiteSpace=wrap;fontSize=12;fontStyle=0;shape=mxgraph.aws4.group;grIcon=mxgraph.aws4.group_subnet;strokeColor=#879196;fillColor=none;verticalAlign=top;align=left;spacingLeft=30;fontColor=#879196;dashed=0;" vertex="1" parent="1">
          <mxGeometry x="231" y="471" width="87" height="39.5" as="geometry" />
        </mxCell>
        <mxCell id="wYJI5mITfUX201HlZ-qb-112" value="Subnet 2" style="outlineConnect=0;gradientColor=none;html=1;whiteSpace=wrap;fontSize=12;fontStyle=0;shape=mxgraph.aws4.group;grIcon=mxgraph.aws4.group_subnet;strokeColor=#879196;fillColor=none;verticalAlign=top;align=left;spacingLeft=30;fontColor=#879196;dashed=0;" vertex="1" parent="1">
          <mxGeometry x="345.5" y="471" width="87" height="39.5" as="geometry" />
        </mxCell>
        <mxCell id="wYJI5mITfUX201HlZ-qb-113" value="Subnet 1" style="outlineConnect=0;gradientColor=none;html=1;whiteSpace=wrap;fontSize=12;fontStyle=0;shape=mxgraph.aws4.group;grIcon=mxgraph.aws4.group_subnet;strokeColor=#879196;fillColor=none;verticalAlign=top;align=left;spacingLeft=30;fontColor=#879196;dashed=0;" vertex="1" parent="1">
          <mxGeometry x="992" y="471" width="87" height="39.5" as="geometry" />
        </mxCell>
        <mxCell id="wYJI5mITfUX201HlZ-qb-114" value="Subnet 2" style="outlineConnect=0;gradientColor=none;html=1;whiteSpace=wrap;fontSize=12;fontStyle=0;shape=mxgraph.aws4.group;grIcon=mxgraph.aws4.group_subnet;strokeColor=#879196;fillColor=none;verticalAlign=top;align=left;spacingLeft=30;fontColor=#879196;dashed=0;" vertex="1" parent="1">
          <mxGeometry x="994" y="520.5" width="87" height="39.5" as="geometry" />
        </mxCell>
        <mxCell id="wYJI5mITfUX201HlZ-qb-115" value="hub-to-dev&lt;br&gt;hub-to-prod" style="outlineConnect=0;fontColor=#232F3E;gradientColor=none;strokeColor=#232F3E;fillColor=#ffffff;dashed=0;verticalLabelPosition=bottom;verticalAlign=top;align=center;html=1;fontSize=12;fontStyle=0;aspect=fixed;shape=mxgraph.aws4.resourceIcon;resIcon=mxgraph.aws4.peering;" vertex="1" parent="1">
          <mxGeometry x="719.5" y="273" width="41" height="41" as="geometry" />
        </mxCell>
        <mxCell id="wYJI5mITfUX201HlZ-qb-117" value="prod-to-hub" style="outlineConnect=0;fontColor=#232F3E;gradientColor=none;strokeColor=#232F3E;fillColor=#ffffff;dashed=0;verticalLabelPosition=bottom;verticalAlign=top;align=center;html=1;fontSize=12;fontStyle=0;aspect=fixed;shape=mxgraph.aws4.resourceIcon;resIcon=mxgraph.aws4.peering;" vertex="1" parent="1">
          <mxGeometry x="986" y="382.5" width="41" height="41" as="geometry" />
        </mxCell>
        <mxCell id="wYJI5mITfUX201HlZ-qb-118" value="dev-to-prod" style="outlineConnect=0;fontColor=#232F3E;gradientColor=none;strokeColor=#232F3E;fillColor=#ffffff;dashed=0;verticalLabelPosition=bottom;verticalAlign=top;align=center;html=1;fontSize=12;fontStyle=0;aspect=fixed;shape=mxgraph.aws4.resourceIcon;resIcon=mxgraph.aws4.peering;" vertex="1" parent="1">
          <mxGeometry x="418" y="382.5" width="41" height="41" as="geometry" />
        </mxCell>
        <mxCell id="wYJI5mITfUX201HlZ-qb-119" value="" style="endArrow=classic;html=1;" edge="1" parent="1">
          <mxGeometry width="50" height="50" relative="1" as="geometry">
            <mxPoint x="687" y="338" as="sourcePoint" />
            <mxPoint x="461" y="390" as="targetPoint" />
          </mxGeometry>
        </mxCell>
        <mxCell id="wYJI5mITfUX201HlZ-qb-120" value="" style="endArrow=classic;html=1;" edge="1" parent="1">
          <mxGeometry width="50" height="50" relative="1" as="geometry">
            <mxPoint x="801" y="345" as="sourcePoint" />
            <mxPoint x="976" y="404" as="targetPoint" />
          </mxGeometry>
        </mxCell>
        <mxCell id="wYJI5mITfUX201HlZ-qb-121" value="Peering" style="text;html=1;strokeColor=none;fillColor=none;align=center;verticalAlign=middle;whiteSpace=wrap;rounded=0;" vertex="1" parent="1">
          <mxGeometry x="720.5" y="349" width="40" height="20" as="geometry" />
        </mxCell>
        <mxCell id="wYJI5mITfUX201HlZ-qb-122" value="dev-resourcegroup" style="aspect=fixed;html=1;points=[];align=center;image;fontSize=12;image=img/lib/mscae/ResourceGroup.svg;" vertex="1" parent="1">
          <mxGeometry x="146" y="437" width="37.5" height="30" as="geometry" />
        </mxCell>
        <mxCell id="wYJI5mITfUX201HlZ-qb-123" value="prod-resourcegroup" style="aspect=fixed;html=1;points=[];align=center;image;fontSize=12;image=img/lib/mscae/ResourceGroup.svg;" vertex="1" parent="1">
          <mxGeometry x="730.5" y="445" width="37.5" height="30" as="geometry" />
        </mxCell>
        <mxCell id="wYJI5mITfUX201HlZ-qb-124" value="&amp;nbsp;Subnet resources" style="outlineConnect=0;gradientColor=none;html=1;whiteSpace=wrap;fontSize=12;fontStyle=0;shape=mxgraph.aws4.group;grIcon=mxgraph.aws4.group_subnet;strokeColor=#879196;fillColor=none;verticalAlign=top;align=left;spacingLeft=30;fontColor=#879196;dashed=0;" vertex="1" parent="1">
          <mxGeometry x="811" y="73" width="188" height="58" as="geometry" />
        </mxCell>
        <mxCell id="wYJI5mITfUX201HlZ-qb-125" value="nsg" style="aspect=fixed;html=1;points=[];align=center;image;fontSize=12;image=img/lib/mscae/Network_Security_Groups_Classic.svg;" vertex="1" parent="1">
          <mxGeometry x="444.62" y="500" width="27.38" height="37" as="geometry" />
        </mxCell>
        <mxCell id="wYJI5mITfUX201HlZ-qb-126" value="nsg" style="aspect=fixed;html=1;points=[];align=center;image;fontSize=12;image=img/lib/mscae/Network_Security_Groups_Classic.svg;" vertex="1" parent="1">
          <mxGeometry x="846" y="441.5" width="27.38" height="37" as="geometry" />
        </mxCell>
        <mxCell id="wYJI5mITfUX201HlZ-qb-127" value="AzureBastionSubnet" style="outlineConnect=0;gradientColor=none;html=1;whiteSpace=wrap;fontSize=12;fontStyle=0;shape=mxgraph.aws4.group;grIcon=mxgraph.aws4.group_subnet;strokeColor=#879196;fillColor=none;verticalAlign=top;align=left;spacingLeft=30;fontColor=#879196;dashed=0;" vertex="1" parent="1">
          <mxGeometry x="814" y="157" width="175" height="46" as="geometry" />
        </mxCell>
        <mxCell id="wYJI5mITfUX201HlZ-qb-128" value="azurebastion" style="verticalLabelPosition=bottom;html=1;verticalAlign=top;align=center;strokeColor=none;fillColor=#00BEF2;shape=mxgraph.azure.computer;pointerEvents=1;" vertex="1" parent="1">
          <mxGeometry x="879.5" y="210" width="44" height="38.5" as="geometry" />
        </mxCell>
      </root>
    </mxGraphModel>
  </diagram>
</mxfile>
